<?xml version="1.0" encoding="UTF-8"?>
<svg width="17px" height="18px" viewBox="0 0 17 18" version="1.1" xmlns="http://www.w3.org/2000/svg" xmlns:xlink="http://www.w3.org/1999/xlink">
    <title>play</title>
    <g id="Page-1" stroke="none" stroke-width="1" fill="none" fill-rule="evenodd">
        <g id="play" fill="#FFFFFF" fill-rule="nonzero">
            <path d="M15.7969125,8.214525 L1.3969125,0.114525 C1.1197125,-0.040275 0.7759125,-0.038475 0.5023125,0.121725 C0.2269125,0.283725 0.0559125,0.578925 0.0559125,0.899325 L0.0559125,17.099325 C0.0559125,17.419725 0.2269125,17.714925 0.5023125,17.876925 C0.6409125,17.957925 0.7993125,17.999325 0.9559125,17.999325 C1.1089125,17.999325 1.2601125,17.961525 1.3969125,17.884125 L15.7969125,9.784125 C16.0795125,9.623925 16.2559125,9.325125 16.2559125,8.999325 C16.2559125,8.673525 16.0795125,8.374725 15.7969125,8.214525 Z M1.8559125,15.560325 L1.8559125,2.438325 L13.5199125,8.999325 L1.8559125,15.560325 Z" id="Shape"></path>
        </g>
    </g>
</svg>