<?xml version="1.0" encoding="UTF-8"?>
<svg width="49px" height="48px" viewBox="0 0 49 48" version="1.1" xmlns="http://www.w3.org/2000/svg" xmlns:xlink="http://www.w3.org/1999/xlink">
    <title>trailhead</title>
    <g id="Page-1" stroke="none" stroke-width="1" fill="none" fill-rule="evenodd">
        <g id="trailhead" fill="#54698D" fill-rule="nonzero">
            <polygon id="Path" points="10.3 35 7.7 38 12.8 38"></polygon>
            <polygon id="Path" points="12.7 41.1 17.8 41.1 15.2 38.2"></polygon>
            <polygon id="Path" points="33.2 39 35.7 36.1 38.3 39"></polygon>
            <path d="M24.8,0.2 C24.4,6.66133815e-16 23.9,6.66133815e-16 23.4,0.2 C9.1,6.2 -0.1,20.4 0.2,36 L0.2,39.4 C0.2,39.9 0.4,40.4 0.9,40.8 C7.8,45.4 15.9,47.9 24.2,48 L25,48 L25.1,48 C33,47.7 40.8,45.3 47.4,40.8 C47.8,40.5 48.1,40 48.1,39.4 L48.1,36 C48.4,20.4 39.2,6.2 24.8,0.2 Z M11.9,12.8 C17.7,5.9 24.2,3.6 24.2,3.6 C25.6,4.2 41.1,10.3 44.4,30 L40.3,30 L32.5,18.7 C32,18 30.9,17.8 30.1,18.3 C29.9,18.4 29.8,18.6 29.7,18.7 L27.7,21.5 L22.2,13.6 C21.7,12.9 20.6,12.7 19.8,13.2 C19.6,13.3 19.5,13.5 19.4,13.6 L8.2,29.9 L4.1,30 C5.3,22.5 8.4,17 11.9,12.8 Z M36.1,30 L31.4,30 L26,30 L28.6,26.2 L31,22.6 L36.1,30 Z M21.7,18.9 L21.7,18.9 L21.7,18.9 L25.7,24.6 L21.9,29.9 L20.9,29.9 L12.3,29.9 L16.4,23.8 L20.7,17.4 L20.7,17.4 L21.7,18.9 Z M25.5,42 L25.5,42 L24,44.6 C21.1,44.6 18.4,44.2 15.2,43.5 L15.2,43.5 C11.1,42.5 7.2,40.8 3.6,38.6 L3.6,36.1 C3.6,35.3 3.6,34.4 3.7,33.5 L11.2,33.5 L21.3,33.5 C19.9,35.6 20.6,38.4 22.8,39.7 C23,39.8 23.2,39.9 23.3,40 L24.9,40.7 C25.5,40.9 25.7,41.5 25.5,42 Z M44.8,38.5 C42.2,40.1 39.5,41.4 36.7,42.4 C36.7,42.4 36.2,42.6 36,42.6 C34.4,43.1 32.8,43.5 31.1,43.9 C30.2,44.1 29.2,44.2 28.3,44.3 L28.6,43.8 C29.9,41.6 29.1,38.9 26.9,37.6 C26.8,37.5 26.6,37.5 26.5,37.4 L24.9,36.7 C24.4,36.5 24.1,35.9 24.4,35.3 C24.4,35.2 24.5,35.1 24.5,35.1 L26,33.4 L29,33.4 L44.7,33.4 C44.7,34.2 44.8,35.1 44.8,36 L44.8,38.5 Z" id="Shape"></path>
        </g>
    </g>
</svg>