<?xml version="1.0" encoding="utf-8"?>
<!-- Generator: Adobe Illustrator 25.3.1, SVG Export Plug-In . SVG Version: 6.00 Build 0)  -->
<svg version="1.1" id="Layer_1" xmlns="http://www.w3.org/2000/svg" xmlns:xlink="http://www.w3.org/1999/xlink" x="0px" y="0px"
	 viewBox="0 0 1000 1000" style="enable-background:new 0 0 1000 1000;" xml:space="preserve">
<style type="text/css">
	.st0{fill:#FFFFFF;}
	.st1{fill:#026231;}
	.st2{fill:#BAA88D;}
	.st3{font-family:'UniversLTPro-85XBlackObl';}
	.st4{font-size:38.6626px;}
	.st5{display:none;}
	.st6{display:inline;}
	.st7{fill:#F01427;}
	.st8{font-family:'UniversLTPro-65Bold';}
	.st9{font-size:32.5579px;}
	.st10{font-size:21.3661px;}
	.st11{fill:#13CEC0;}
	.st12{fill:#067065;}
	.st13{fill:none;}
	.st14{fill:#D3679D;}
	.st15{fill:#812124;}
	.st16{fill:#CE6200;}
	.st17{fill:#FCAC63;}
	.st18{fill:#6B9660;}
	.st19{fill:#416537;}
	.st20{fill:#E8762C;}
	.st21{fill:#C72035;}
	.st22{fill:#59879B;}
	.st23{fill:#5B6591;}
	.st24{fill:#EB912C;}
	.st25{fill:#1F447E;}
	.st26{fill:#7099A6;}
	.st27{fill:#7673C0;}
	.st28{fill:#211746;}
	.st29{fill:#00A1E0;}
	.st30{fill-rule:evenodd;clip-rule:evenodd;fill:#FFFFFF;}
	.st31{fill-rule:evenodd;clip-rule:evenodd;fill:#032D60;}
	.st32{fill:#9F63C6;}
	.st33{fill:#4B2048;}
	.st34{fill:#1D3160;}
	.st35{fill:#8DD1F3;}
	.st36{fill:#A976B2;}
	.st37{fill:#732B87;}
	.st38{fill:#069A49;}
	.st39{fill:#15713A;}
	.st40{fill:#FF784F;}
	.st41{fill:#D83A00;}
	.st42{fill:#FCF1DA;}
	.st43{fill:#E4A201;}
	.st44{fill:#F9E3B6;}
	.st45{fill:#032D60;}
</style>
<g>
	<path class="st0" d="M500,994c-66.7,0-131.4-13.1-192.3-38.8c-58.8-24.9-111.7-60.5-157-105.9c-45.4-45.4-81-98.2-105.9-157
		C19.1,631.4,6,566.7,6,500s13.1-131.4,38.8-192.3c24.9-58.8,60.5-111.7,105.9-157c45.4-45.4,98.2-81,157-105.9
		C368.6,19.1,433.3,6,500,6s131.4,13.1,192.3,38.8c58.8,24.9,111.7,60.5,157,105.9c45.4,45.4,81,98.2,105.9,157
		C980.9,368.6,994,433.3,994,500s-13.1,131.4-38.8,192.3c-24.9,58.8-60.5,111.7-105.9,157c-45.4,45.4-98.2,81-157,105.9
		C631.4,980.9,566.7,994,500,994z"/>
	<path class="st1" d="M500,8c66.4,0,130.9,13,191.5,38.7c58.6,24.8,111.2,60.3,156.4,105.4s80.7,97.8,105.4,156.4
		C979,369.1,992,433.6,992,500s-13,130.9-38.7,191.5c-24.8,58.6-60.3,111.2-105.4,156.4s-97.8,80.7-156.4,105.4
		C630.9,979,566.4,992,500,992s-130.9-13-191.5-38.7c-58.6-24.8-111.2-60.3-156.4-105.4S71.4,750.1,46.7,691.5
		C21,630.9,8,566.4,8,500s13-130.9,38.7-191.5c24.8-58.6,60.3-111.2,105.4-156.4s97.8-80.7,156.4-105.4C369.1,21,433.6,8,500,8
		 M500,4C226.1,4,4,226.1,4,500s222.1,496,496,496s496-222.1,496-496S773.9,4,500,4L500,4z"/>
</g>
<g>
	<path class="st0" d="M500,768.6c-71.7,0-139.2-27.9-189.9-78.7c-50.7-50.7-78.7-118.2-78.7-189.9s27.9-139.2,78.7-189.9
		c50.7-50.7,118.2-78.7,189.9-78.7s139.2,27.9,189.9,78.7c50.7,50.7,78.7,118.2,78.7,189.9s-27.9,139.2-78.7,189.9
		C639.2,740.7,571.7,768.6,500,768.6z"/>
	<path class="st2" d="M500,233.4c36,0,70.9,7,103.8,20.9c31.7,13.4,60.3,32.7,84.7,57.1c24.5,24.5,43.7,53,57.1,84.7
		c13.9,32.9,20.9,67.8,20.9,103.8s-7,70.9-20.9,103.8c-13.4,31.7-32.7,60.3-57.1,84.7c-24.5,24.5-53,43.7-84.7,57.1
		c-32.9,13.9-67.8,20.9-103.8,20.9s-70.9-7-103.8-20.9c-31.7-13.4-60.3-32.7-84.7-57.1c-24.5-24.5-43.7-53-57.1-84.7
		c-13.9-32.9-20.9-67.8-20.9-103.8s7-70.9,20.9-103.8c13.4-31.7,32.7-60.3,57.1-84.7c24.5-24.5,53-43.7,84.7-57.1
		C429.1,240.4,464,233.4,500,233.4 M500,229.4c-149.5,0-270.6,121.2-270.6,270.6S350.5,770.6,500,770.6S770.6,649.5,770.6,500
		S649.5,229.4,500,229.4L500,229.4z"/>
</g>
<rect x="405.9" y="734" class="st0" width="188.2" height="42.7"/>
<text transform="matrix(1 0 0 1 429.2393 769.0439)" class="st2 st3 st4">TRUTH</text>
<g class="st5">
	<defs>
		<circle id="SVGID_1_" cx="500" cy="500" r="222.8"/>
	</defs>
	<clipPath id="SVGID_2_" class="st6">
		<use xlink:href="#SVGID_1_"  style="overflow:visible;"/>
	</clipPath>
	<g style="display:inline;clip-path:url(#SVGID_2_);">
		
			<image style="overflow:visible;" width="4895" height="3268" xlink:href="../../../../../../Desktop/AdobeStock_165420915.jpeg"  transform="matrix(0.1315 0 0 0.1315 136 233)">
		</image>
	</g>
</g>
<g>
	<defs>
		<circle id="SVGID_3_" cx="500.1" cy="498.2" r="227.1"/>
	</defs>
	<clipPath id="SVGID_4_">
		<use xlink:href="#SVGID_3_"  style="overflow:visible;"/>
	</clipPath>
	<g transform="matrix(1 0 0 1 0 -1.525879e-05)" style="clip-path:url(#SVGID_4_);">
		
			<image style="overflow:visible;" width="5048" height="3367" xlink:href="../../../../../../Downloads/AdobeStock_221739842.jpeg"  transform="matrix(0.1391 0 0 0.1391 89.6792 195.7867)">
		</image>
	</g>
</g>
<g>
	<path class="st1" d="M705.6,595.4c-36,77.5-114.5,131.2-205.6,131.2c-91.1,0-169.7-53.8-205.7-131.3"/>
</g>
<path class="st7" d="M1142.9,656.9"/>
<image style="display:none;overflow:visible;" width="629" height="413" xlink:href="../../../../../../Desktop/AdobeStock_165420915-crop.png"  transform="matrix(0.1321 0 0 0.1321 471 233)">
</image>
<text transform="matrix(1 0 0 1 416.1426 693.2295)" class="st0 st8 st9">Farmer 360</text>
<g>
	<g>
		<g>
			
				<image style="overflow:visible;opacity:0.14;" width="126" height="125" xlink:href="8A7134C0005C070B.png"  transform="matrix(1 0 0 1 435 17)">
			</image>
			<g>
				<circle class="st0" cx="498.2" cy="69.7" r="35.3"/>
			</g>
		</g>
		<text transform="matrix(1 0 0 1 396.5669 138.2993)"><tspan x="0" y="0" class="st8 st10">Robust Commercial </tspan><tspan x="14.8" y="25.6" class="st8 st10">Sales &amp; Contract </tspan><tspan x="32.6" y="51.3" class="st8 st10">Management</tspan></text>
		<g>
			<rect x="486.3" y="57.1" class="st11" width="26.5" height="26.5"/>
			<path class="st0" d="M506.4,72.7c-0.3,0-0.6-0.1-0.8-0.3c-0.2-0.2-0.3-0.5-0.3-0.8v-6.9h-6.9c-0.3,0-0.6-0.1-0.8-0.3
				c-0.2-0.2-0.3-0.5-0.3-0.8c0-0.3,0.1-0.6,0.3-0.8c0.2-0.2,0.5-0.3,0.8-0.3h8.1c0.3,0,0.6,0.1,0.8,0.3c0.2,0.2,0.3,0.5,0.3,0.8
				v8.1c0,0.3-0.1,0.6-0.3,0.8C507,72.5,506.7,72.7,506.4,72.7z"/>
			<path class="st0" d="M486.3,75.6c-0.2,0-0.4-0.1-0.6-0.2c-0.2-0.1-0.3-0.3-0.4-0.5c-0.1-0.2-0.1-0.4-0.1-0.7
				c0-0.2,0.2-0.4,0.3-0.6l6.3-6.3c0.2-0.2,0.5-0.3,0.8-0.3c0.3,0,0.6,0.1,0.8,0.3l3.8,3.8l7.8-7.8c0.2-0.2,0.5-0.3,0.8-0.3
				c0.3,0,0.6,0.1,0.8,0.3c0.2,0.2,0.3,0.5,0.3,0.8c0,0.3-0.1,0.6-0.3,0.8l-8.6,8.6c-0.2,0.2-0.5,0.3-0.8,0.3
				c-0.3,0-0.6-0.1-0.8-0.3l-3.8-3.8l-5.5,5.5C486.9,75.4,486.6,75.5,486.3,75.6z"/>
			<path class="st12" d="M487.4,82.5h24.2V58.3h-24.2V82.5z M512.8,84.8h-26.5c-0.3,0-0.6-0.1-0.8-0.3c-0.2-0.2-0.3-0.5-0.3-0.8
				V57.1c0-0.3,0.1-0.6,0.3-0.8c0.2-0.2,0.5-0.3,0.8-0.3h26.5c0.3,0,0.6,0.1,0.8,0.3c0.2,0.2,0.3,0.5,0.3,0.8v26.5
				c0,0.3-0.1,0.6-0.3,0.8C513.4,84.6,513.1,84.8,512.8,84.8z"/>
			<path class="st12" d="M492.6,84.8c-0.3,0-0.6-0.1-0.8-0.3c-0.2-0.2-0.3-0.5-0.3-0.8V79c0-0.3,0.1-0.6,0.3-0.8
				c0.2-0.2,0.5-0.3,0.8-0.3c0.3,0,0.6,0.1,0.8,0.3c0.2,0.2,0.3,0.5,0.3,0.8v4.6c0,0.3-0.1,0.6-0.3,0.8
				C493.2,84.6,492.9,84.8,492.6,84.8z"/>
			<path class="st12" d="M499.5,84.8c-0.3,0-0.6-0.1-0.8-0.3c-0.2-0.2-0.3-0.5-0.3-0.8V79c0-0.3,0.1-0.6,0.3-0.8
				c0.2-0.2,0.5-0.3,0.8-0.3s0.6,0.1,0.8,0.3c0.2,0.2,0.3,0.5,0.3,0.8v4.6c0,0.3-0.1,0.6-0.3,0.8C500.1,84.6,499.8,84.8,499.5,84.8z
				"/>
			<path class="st12" d="M506.4,84.8c-0.3,0-0.6-0.1-0.8-0.3c-0.2-0.2-0.3-0.5-0.3-0.8V79c0-0.3,0.1-0.6,0.3-0.8
				c0.2-0.2,0.5-0.3,0.8-0.3c0.3,0,0.6,0.1,0.8,0.3c0.2,0.2,0.3,0.5,0.3,0.8v4.6c0,0.3-0.1,0.6-0.3,0.8
				C507,84.6,506.7,84.8,506.4,84.8z"/>
		</g>
	</g>
	<g>
		<g>
			
				<image style="overflow:visible;opacity:0.14;" width="126" height="125" xlink:href="8A7134C0005C0715.png"  transform="matrix(1 0 0 1 629 69)">
			</image>
			<g>
				<circle class="st0" cx="691.9" cy="121.3" r="35.3"/>
			</g>
		</g>
		<text transform="matrix(1 0 0 1 615.3418 190.1465)"><tspan x="0" y="0" class="st8 st10">Faster, Smarter </tspan><tspan x="-11.3" y="25.6" class="st8 st10">Customer Service</tspan></text>
		<g id="service-day_2_">
			<g id="invisi-border_14_">
				<rect x="675" y="105.6" class="st13" width="33.6" height="33.6"/>
			</g>
			<g id="icon_1_">
				<path class="st14" d="M703.9,112.6L703.9,112.6c-2.5-2.5-6.7-2.5-9.2,0c0,0,0,0,0,0l-2.7,2.7l-2.7-2.7c-2.5-2.5-6.7-2.5-9.2,0
					c0,0,0,0,0,0h0c-2.5,2.5-2.5,6.7,0,9.2l11.9,11.9l11.9-11.9C706.5,119.3,706.5,115.2,703.9,112.6z"/>
				<path class="st15" d="M692,134.8c-0.3,0-0.6-0.1-0.8-0.3l-11.9-11.9c-3-3-3-7.8,0-10.7s7.8-3,10.7,0l1.9,1.9l1.9-1.9
					c3-3,7.8-3,10.7,0l0,0c3,3,3,7.8,0,10.7l-11.9,11.9C692.6,134.7,692.3,134.8,692,134.8z M684.7,111.8c-3,0-5.5,2.4-5.5,5.4
					c0,1.4,0.6,2.8,1.6,3.9l11.2,11.2l11.2-11.2c2.1-2.1,2.1-5.6,0-7.7c-2.1-2.1-5.6-2.1-7.7,0l-2.7,2.7c-0.4,0.4-1.1,0.4-1.5,0
					l-2.7-2.7C687.6,112.4,686.2,111.8,684.7,111.8z"/>
				<path class="st0" d="M682.5,118.7c-0.6,0-1.1-0.5-1.1-1.1c0-2.1,1.7-3.7,3.7-3.7c0.6,0,1.1,0.5,1.1,1.1c0,0.6-0.5,1.1-1.1,1.1
					c-0.9,0-1.6,0.7-1.6,1.6C683.5,118.2,683,118.7,682.5,118.7z"/>
			</g>
		</g>
	</g>
	<g>
		<g>
			
				<image style="overflow:visible;opacity:0.14;" width="126" height="125" xlink:href="8A7134C0005C0717.png"  transform="matrix(1 0 0 1 771 211)">
			</image>
			<g>
				<circle class="st0" cx="834" cy="263.4" r="35.3"/>
			</g>
		</g>
		<text transform="matrix(1 0 0 1 754.0381 332.2456)"><tspan x="0" y="0" class="st8 st10">Constant Digital </tspan><tspan x="1.2" y="25.6" class="st8 st10">Communication </tspan><tspan x="38.6" y="51.3" class="st8 st10">Lifecycle</tspan></text>
		<g>
			<polyline class="st0" points="843.1,269.5 849.2,275.5 846.4,278.3 840.4,272.2 			"/>
			<path class="st16" d="M846.4,279.4c-0.3,0-0.6-0.1-0.8-0.3l-6.1-6.1c-0.2-0.2-0.3-0.5-0.3-0.8s0.1-0.6,0.3-0.8
				c0.2-0.2,0.5-0.3,0.8-0.3c0.3,0,0.6,0.1,0.8,0.3l5.3,5.3l1.2-1.2l-5.3-5.3c-0.2-0.2-0.3-0.5-0.3-0.8c0-0.3,0.1-0.6,0.3-0.8
				c0.2-0.2,0.5-0.3,0.8-0.3c0.3,0,0.6,0.1,0.8,0.3l6.1,6.1c0.1,0.1,0.2,0.2,0.2,0.4c0.1,0.1,0.1,0.3,0.1,0.4c0,0.1,0,0.3-0.1,0.4
				c-0.1,0.1-0.1,0.3-0.2,0.4l-2.8,2.8C847,279.3,846.7,279.4,846.4,279.4z"/>
			
				<ellipse transform="matrix(0.7071 -0.7071 0.7071 0.7071 58.5036 666.9175)" class="st17" cx="834.3" cy="262.8" rx="11" ry="11"/>
			<path class="st16" d="M834.3,252.9c-2,0-3.9,0.6-5.5,1.7c-1.6,1.1-2.9,2.6-3.7,4.5c-0.8,1.8-0.9,3.8-0.6,5.7s1.3,3.7,2.7,5.1
				c1.4,1.4,3.2,2.3,5.1,2.7c1.9,0.4,3.9,0.2,5.7-0.6c1.8-0.8,3.4-2,4.5-3.7c1.1-1.6,1.7-3.6,1.7-5.5c0-2.6-1-5.2-2.9-7
				C839.5,253.9,836.9,252.9,834.3,252.9z M834.3,275c-2.4,0-4.8-0.7-6.7-2s-3.6-3.2-4.5-5.5c-0.9-2.2-1.2-4.7-0.7-7
				c0.5-2.4,1.6-4.5,3.3-6.2s3.9-2.9,6.2-3.3c2.4-0.5,4.8-0.2,7,0.7s4.1,2.5,5.5,4.5c1.3,2,2,4.3,2,6.7c0,3.2-1.3,6.3-3.6,8.6
				C840.6,273.7,837.5,275,834.3,275z"/>
			<path class="st0" d="M834.3,265c-1.6,0-3.2,0.6-4.3,1.8c-1.1,1.1-1.8,2.7-1.8,4.3v0.9c1.8,1.2,3.9,1.8,6.1,1.8
				c2.2,0,4.3-0.6,6.1-1.8v-0.9c0-1.6-0.6-3.2-1.8-4.3C837.5,265.7,835.9,265,834.3,265z"/>
			<circle class="st0" cx="834.3" cy="260.6" r="4.4"/>
			<path class="st16" d="M834.3,257.3c-0.7,0-1.3,0.2-1.8,0.6c-0.5,0.4-1,0.9-1.2,1.5c-0.3,0.6-0.3,1.3-0.2,1.9s0.4,1.2,0.9,1.7
				c0.5,0.5,1.1,0.8,1.7,0.9c0.6,0.1,1.3,0.1,1.9-0.2c0.6-0.3,1.1-0.7,1.5-1.2c0.4-0.5,0.6-1.2,0.6-1.8c0-0.9-0.3-1.7-1-2.3
				C836,257.7,835.2,257.3,834.3,257.3z M834.3,266.2c-1.1,0-2.2-0.3-3.1-0.9c-0.9-0.6-1.6-1.5-2-2.5c-0.4-1-0.5-2.1-0.3-3.2
				c0.2-1.1,0.7-2.1,1.5-2.8c0.8-0.8,1.8-1.3,2.8-1.5c1.1-0.2,2.2-0.1,3.2,0.3c1,0.4,1.9,1.1,2.5,2c0.6,0.9,0.9,2,0.9,3.1
				c0,0.7-0.1,1.4-0.4,2.1c-0.3,0.7-0.7,1.3-1.2,1.8c-0.5,0.5-1.1,0.9-1.8,1.2C835.7,266,835,266.2,834.3,266.2z"/>
			<path class="st16" d="M840.4,272.2c-0.3,0-0.6-0.1-0.8-0.3c-0.2-0.2-0.3-0.5-0.3-0.8c0-1.3-0.5-2.6-1.5-3.5
				c-0.9-0.9-2.2-1.5-3.5-1.5c-1.3,0-2.6,0.5-3.5,1.5c-0.9,0.9-1.5,2.2-1.5,3.5c0,0.3-0.1,0.6-0.3,0.8s-0.5,0.3-0.8,0.3
				s-0.6-0.1-0.8-0.3s-0.3-0.5-0.3-0.8c0-1.9,0.8-3.7,2.1-5.1c1.3-1.3,3.2-2.1,5.1-2.1c1.9,0,3.7,0.8,5.1,2.1
				c1.3,1.3,2.1,3.2,2.1,5.1c0,0.3-0.1,0.6-0.3,0.8C840.9,272.1,840.7,272.2,840.4,272.2z"/>
			<path class="st16" d="M834.3,252.9c-2,0-3.9,0.6-5.5,1.7c-1.6,1.1-2.9,2.6-3.7,4.5c-0.8,1.8-0.9,3.8-0.6,5.7s1.3,3.7,2.7,5.1
				c1.4,1.4,3.2,2.3,5.1,2.7c1.9,0.4,3.9,0.2,5.7-0.6c1.8-0.8,3.4-2,4.5-3.7c1.1-1.6,1.7-3.6,1.7-5.5c0-2.6-1-5.2-2.9-7
				C839.5,253.9,836.9,252.9,834.3,252.9z M834.3,275c-2.4,0-4.8-0.7-6.7-2s-3.6-3.2-4.5-5.5c-0.9-2.2-1.2-4.7-0.7-7
				c0.5-2.4,1.6-4.5,3.3-6.2s3.9-2.9,6.2-3.3c2.4-0.5,4.8-0.2,7,0.7s4.1,2.5,5.5,4.5c1.3,2,2,4.3,2,6.7c0,3.2-1.3,6.3-3.6,8.6
				C840.6,273.7,837.5,275,834.3,275z"/>
		</g>
	</g>
	<g>
		<g>
			
				<image style="overflow:visible;opacity:0.14;" width="126" height="126" xlink:href="8A7134C0005C071A.png"  transform="matrix(1 0 0 1 821 404)">
			</image>
			<g>
				<path class="st0" d="M919.3,457.3c0,19.5-12.7,35.3-32.2,35.3s-38.3-15.8-38.3-35.3c0-19.5,15.8-35.3,35.3-35.3
					S919.3,437.8,919.3,457.3z"/>
			</g>
		</g>
		<text transform="matrix(1 0 0 1 825.7471 526.1914)"><tspan x="0" y="0" class="st8 st10">Self-Service </tspan><tspan x="4.2" y="25.6" class="st8 st10">Ordering &amp; </tspan><tspan x="-33.8" y="51.3" class="st8 st10">After-Market Parts</tspan></text>
		<g>
			<polygon class="st18" points="878,459.2 893.9,459.2 895.9,449.8 876.1,449.8 			"/>
			<path class="st19" d="M894.9,464.7h-16.4c-0.2,0-0.5-0.1-0.6-0.2s-0.3-0.3-0.4-0.6l-3.3-16.1h-2.2c-0.3,0-0.5-0.1-0.7-0.3
				c-0.2-0.2-0.3-0.4-0.3-0.7c0-0.3,0.1-0.5,0.3-0.7c0.2-0.2,0.4-0.3,0.7-0.3h3c0.2,0,0.5,0.1,0.6,0.2c0.2,0.1,0.3,0.3,0.4,0.6
				l3.3,16.1h15.6c0.3,0,0.5,0.1,0.7,0.3c0.2,0.2,0.3,0.4,0.3,0.7c0,0.3-0.1,0.5-0.3,0.7C895.4,464.6,895.2,464.7,894.9,464.7z"/>
			<path class="st19" d="M893.9,460.2H878c-0.3,0-0.5-0.1-0.7-0.3c-0.2-0.2-0.3-0.4-0.3-0.7c0-0.3,0.1-0.5,0.3-0.7
				c0.2-0.2,0.4-0.3,0.7-0.3h15.1l1.6-7.4h-18.6c-0.3,0-0.5-0.1-0.7-0.3c-0.2-0.2-0.3-0.4-0.3-0.7c0-0.3,0.1-0.5,0.3-0.7
				c0.2-0.2,0.4-0.3,0.7-0.3h19.9c0.1,0,0.3,0,0.4,0.1c0.1,0.1,0.3,0.2,0.4,0.3c0.1,0.1,0.2,0.3,0.2,0.4s0,0.3,0,0.4l-2,9.4
				c0,0.2-0.2,0.4-0.4,0.6C894.4,460.2,894.1,460.2,893.9,460.2z"/>
			<path class="st0" d="M878.6,467.7c1.1,0,2-0.9,2-2c0-1.1-0.9-2-2-2s-2,0.9-2,2C876.6,466.8,877.5,467.7,878.6,467.7z"/>
			<path class="st19" d="M878.6,464.7c-0.2,0-0.4,0.1-0.6,0.2c-0.2,0.1-0.3,0.3-0.4,0.4c-0.1,0.2-0.1,0.4-0.1,0.6
				c0,0.2,0.1,0.4,0.3,0.5c0.1,0.1,0.3,0.2,0.5,0.3c0.2,0,0.4,0,0.6-0.1c0.2-0.1,0.3-0.2,0.4-0.4c0.1-0.2,0.2-0.4,0.2-0.6
				c0-0.3-0.1-0.5-0.3-0.7C879.1,464.8,878.8,464.7,878.6,464.7z M878.6,468.7c-0.6,0-1.2-0.2-1.7-0.5c-0.5-0.3-0.9-0.8-1.1-1.3
				c-0.2-0.5-0.3-1.1-0.2-1.7c0.1-0.6,0.4-1.1,0.8-1.5s0.9-0.7,1.5-0.8c0.6-0.1,1.2-0.1,1.7,0.2c0.5,0.2,1,0.6,1.3,1.1
				c0.3,0.5,0.5,1.1,0.5,1.7c0,0.8-0.3,1.5-0.9,2.1S879.4,468.7,878.6,468.7z"/>
			<path class="st0" d="M891.5,467.7c1.1,0,2-0.9,2-2c0-1.1-0.9-2-2-2c-1.1,0-2,0.9-2,2C889.5,466.8,890.4,467.7,891.5,467.7z"/>
			<path class="st19" d="M891.5,464.7c-0.2,0-0.4,0.1-0.6,0.2c-0.2,0.1-0.3,0.3-0.4,0.4s-0.1,0.4-0.1,0.6s0.1,0.4,0.3,0.5
				c0.1,0.1,0.3,0.2,0.5,0.3c0.2,0,0.4,0,0.6-0.1c0.2-0.1,0.3-0.2,0.4-0.4s0.2-0.4,0.2-0.6c0-0.3-0.1-0.5-0.3-0.7
				C892,464.8,891.7,464.7,891.5,464.7z M891.5,468.7c-0.6,0-1.2-0.2-1.7-0.5c-0.5-0.3-0.9-0.8-1.1-1.3c-0.2-0.5-0.3-1.1-0.2-1.7
				c0.1-0.6,0.4-1.1,0.8-1.5c0.4-0.4,0.9-0.7,1.5-0.8c0.6-0.1,1.2-0.1,1.7,0.2c0.5,0.2,1,0.6,1.3,1.1c0.3,0.5,0.5,1.1,0.5,1.7
				c0,0.8-0.3,1.5-0.9,2.1S892.3,468.7,891.5,468.7z"/>
		</g>
	</g>
	<g>
		<g>
			
				<image style="overflow:visible;opacity:0.14;" width="126" height="125" xlink:href="8A7134C0005C071B.png"  transform="matrix(1 0 0 1 772 600)">
			</image>
			<g>
				<circle class="st0" cx="834.9" cy="652.3" r="35.3"/>
			</g>
		</g>
		<text transform="matrix(1 0 0 1 749.957 721.0977)"><tspan x="0" y="0" class="st8 st10">Intelligent Sales </tspan><tspan x="22" y="25.6" class="st8 st10">Forecasts &amp; </tspan><tspan x="16" y="51.3" class="st8 st10">Deal Insights</tspan></text>
		<g>
			<polygon class="st20" points="839.6,653.6 835.9,653.6 835.9,657.6 834.4,657.6 834.4,653.6 830.7,653.6 830.7,652.2 
				834.4,652.2 834.4,648.1 835.9,648.1 835.9,652.2 839.6,652.2 			"/>
			<polygon class="st21" points="832.1,658.8 828.7,658.8 828.7,655.1 827.5,655.1 827.5,658.8 824.1,658.8 824.1,659.9 
				827.5,659.9 827.5,663.5 828.7,663.5 828.7,659.9 832.1,659.9 			"/>
			<polygon class="st22" points="846.1,645.8 842.7,645.8 842.7,642.2 841.5,642.2 841.5,645.8 838.1,645.8 838.1,646.9 
				841.5,646.9 841.5,650.5 842.7,650.5 842.7,646.9 846.1,646.9 			"/>
			<polygon class="st23" points="837.9,662.8 835.7,662.8 835.7,660.3 834.6,660.3 834.6,662.8 832.3,662.8 832.3,663.8 
				834.6,663.8 834.6,666.3 835.7,666.3 835.7,663.8 837.9,663.8 			"/>
			<polygon class="st24" points="832.1,645.8 828.7,645.8 828.7,642.2 827.5,642.2 827.5,645.8 824.1,645.8 824.1,646.9 
				827.5,646.9 827.5,650.5 828.7,650.5 828.7,646.9 832.1,646.9 			"/>
			<polygon class="st23" points="848.6,652.4 846.4,652.4 846.4,649.9 845.3,649.9 845.3,652.4 843,652.4 843,653.4 845.3,653.4 
				845.3,655.9 846.4,655.9 846.4,653.4 848.6,653.4 			"/>
			<polygon class="st25" points="846.1,658.8 842.7,658.8 842.7,655.1 841.5,655.1 841.5,658.8 838.1,658.8 838.1,659.9 
				841.5,659.9 841.5,663.5 842.7,663.5 842.7,659.9 846.1,659.9 			"/>
			<polygon class="st26" points="837.8,642.1 835.5,642.1 835.5,639.5 834.7,639.5 834.7,642.1 832.5,642.1 832.5,642.8 
				834.7,642.8 834.7,645.3 835.5,645.3 835.5,642.8 837.8,642.8 			"/>
			<polygon class="st26" points="826.8,652.5 824.6,652.5 824.6,650 823.8,650 823.8,652.5 821.5,652.5 821.5,653.3 823.8,653.3 
				823.8,655.7 824.6,655.7 824.6,653.3 826.8,653.3 			"/>
		</g>
	</g>
	<g>
		<g>
			
				<image style="overflow:visible;opacity:0.14;" width="126" height="125" xlink:href="8A7134C0005C071D.png"  transform="matrix(1 0 0 1 438 783)">
			</image>
			<g>
				<circle class="st0" cx="501.2" cy="835.5" r="35.3"/>
			</g>
		</g>
		<text transform="matrix(1 0 0 1 394.1494 904.3066)"><tspan x="0" y="0" class="st8 st10">Field Sales &amp; Service </tspan><tspan x="-17.8" y="25.6" class="st8 st10">Optimization For Mobile </tspan><tspan x="38.6" y="51.3" class="st8 st10">Engagement </tspan></text>
		<g>
			<polygon class="st27" points="496.5,822.2 508.2,822.2 504,831.7 509.8,831.7 494.9,849.7 498.1,835.9 492.8,835.9 			"/>
			<path class="st28" d="M494.7,836.4l3.7-13.8l-3.7-1l-3.7,13.8L494.7,836.4z M498.1,834h-5.3v3.9h5.3V834z M496.8,850.1l3.2-13.8
				l-3.8-0.9l-3.2,13.8L496.8,850.1z M508.3,830.5l-14.8,18l3,2.5l14.8-18L508.3,830.5z M504,833.6h5.8v-3.9H504V833.6z
				 M506.4,821.4l-4.2,9.5l3.5,1.6l4.2-9.5L506.4,821.4z M496.5,824.1h11.7v-3.9h-11.7V824.1z M492.8,835.9l-1.9-0.5
				c-0.2,0.6,0,1.2,0.3,1.7c0.4,0.5,0.9,0.8,1.5,0.8V835.9z M498.1,835.9l1.9,0.4c0.1-0.6,0-1.2-0.4-1.6c-0.4-0.5-0.9-0.7-1.5-0.7
				V835.9z M494.9,849.7l-1.9-0.4c-0.2,0.9,0.2,1.8,1,2.2c0.8,0.4,1.8,0.2,2.3-0.5L494.9,849.7z M509.8,831.7l1.5,1.2
				c0.5-0.6,0.6-1.4,0.3-2.1c-0.3-0.7-1-1.1-1.7-1.1V831.7z M504,831.7l-1.8-0.8c-0.3,0.6-0.2,1.3,0.1,1.8c0.4,0.5,1,0.9,1.6,0.9
				V831.7z M508.2,822.2l1.8,0.8c0.3-0.6,0.2-1.3-0.1-1.8c-0.4-0.5-1-0.9-1.6-0.9V822.2z M496.5,822.2v-1.9c-0.9,0-1.6,0.6-1.9,1.4
				L496.5,822.2z"/>
			<path class="st0" d="M500,832.2l1.6-5.8l-3.7-1l-1.6,5.8L500,832.2z M501.6,826.4c0.3-1-0.3-2.1-1.4-2.4c-1-0.3-2.1,0.3-2.4,1.4
				L501.6,826.4z M496.3,831.2c-0.3,1,0.3,2.1,1.4,2.4c1,0.3,2.1-0.3,2.4-1.4L496.3,831.2z"/>
		</g>
	</g>
	<g>
		<g>
			
				<image style="overflow:visible;opacity:0.14;" width="126" height="125" xlink:href="25C9FC00D4D04E6.png"  transform="matrix(1 0 0 1 629 742)">
			</image>
			<g>
				<circle class="st0" cx="691.7" cy="794.5" r="35.3"/>
			</g>
		</g>
		<text transform="matrix(1 0 0 1 590.0967 863.1973)"><tspan x="0" y="0" class="st8 st10">Unify Go-To-Market </tspan><tspan x="28.5" y="25.6" class="st8 st10">Channels with </tspan><tspan x="77.8" y="51.3" class="st8 st10">Data</tspan></text>
		<g>
			<circle class="st29" cx="691.7" cy="794.5" r="14.3"/>
			<path class="st30" d="M687.8,801.4c-1.2-0.6-2.2-1.5-2.9-2.6c-0.7-1.1-1.1-2.4-1-3.8c0-1.4,0.4-2.8,1.2-4l5.1,7.6h3.1l5.1-7.6
				c0.8,1.2,1.2,2.6,1.2,4c0,1.2-0.3,2.5-0.9,3.6c-0.6,1.1-1.5,2-2.6,2.6l1,3.7c1.8-1,3.4-2.4,4.5-4.1s1.7-3.8,1.8-5.8
				c0.1-2.1-0.4-4.1-1.4-5.9c-1-1.8-2.4-3.3-4.2-4.4l-5.9,9.1l-5.8-9.1c-1.8,1.1-3.3,2.6-4.3,4.5c-1,1.9-1.5,3.9-1.4,6
				c0.1,2.1,0.8,4.1,1.9,5.9c1.2,1.8,2.8,3.1,4.7,4L687.8,801.4z"/>
			<path class="st31" d="M691.7,808.7c-2.8,0-5.5-0.8-7.8-2.3c-2.3-1.5-4.1-3.7-5.2-6.3s-1.4-5.4-0.8-8.1c0.5-2.7,1.9-5.2,3.8-7.2
				c2-2,4.5-3.3,7.2-3.9c2.7-0.5,5.6-0.3,8.1,0.8s4.8,2.9,6.3,5.2c1.5,2.3,2.4,5,2.4,7.8c0,1.8-0.4,3.7-1.1,5.4
				c-0.7,1.7-1.7,3.3-3,4.6c-1.3,1.3-2.8,2.3-4.5,3.1C695.4,808.3,693.6,808.7,691.7,808.7z M691.7,779.1c-3,0-6,0.9-8.5,2.6
				c-2.5,1.7-4.5,4.1-5.7,6.9c-1.2,2.8-1.5,5.9-0.9,8.9c0.6,3,2.1,5.7,4.2,7.9c2.1,2.1,4.9,3.6,7.9,4.2c3,0.6,6.1,0.3,8.9-0.9
				s5.2-3.1,6.9-5.7c1.7-2.5,2.6-5.5,2.6-8.5c0-4.1-1.6-8-4.5-10.9C699.7,780.8,695.8,779.1,691.7,779.1z"/>
		</g>
	</g>
	<g>
		<g>
			
				<image style="overflow:visible;opacity:0.14;" width="125" height="126" xlink:href="25C9FC00D4D04E1.png"  transform="matrix(1 0 0 1 242 741)">
			</image>
			<g>
				<circle class="st0" cx="304.4" cy="794" r="35.3"/>
			</g>
		</g>
		<text transform="matrix(1 0 0 1 214.811 862.2373)"><tspan x="0" y="0" class="st8 st10">Dealer Loyalty To</tspan><tspan x="21.4" y="25.6" class="st8 st10">Grow Market</tspan><tspan x="59.4" y="51.3" class="st8 st10">Share</tspan></text>
		<g>
			<rect x="296.5" y="780.6" class="st32" width="13.5" height="27"/>
			<path class="st33" d="M297.6,806.5H309v-24.9h-11.4V806.5z M310,808.6h-13.5c-0.3,0-0.5-0.1-0.7-0.3c-0.2-0.2-0.3-0.5-0.3-0.7
				v-27c0-0.3,0.1-0.5,0.3-0.7c0.2-0.2,0.5-0.3,0.7-0.3H310c0.3,0,0.5,0.1,0.7,0.3s0.3,0.5,0.3,0.7v27c0,0.3-0.1,0.5-0.3,0.7
				C310.6,808.5,310.3,808.6,310,808.6z"/>
			<rect x="303.8" y="788.3" class="st32" width="12.4" height="19.2"/>
			<path class="st33" d="M304.8,806.5h10.4v-17.1h-10.4V806.5z M316.2,808.6h-12.4c-0.3,0-0.5-0.1-0.7-0.3s-0.3-0.5-0.3-0.7v-19.2
				c0-0.3,0.1-0.5,0.3-0.7s0.5-0.3,0.7-0.3h12.4c0.3,0,0.5,0.1,0.7,0.3c0.2,0.2,0.3,0.5,0.3,0.7v19.2c0,0.3-0.1,0.5-0.3,0.7
				C316.8,808.5,316.5,808.6,316.2,808.6z"/>
			<rect x="292.4" y="797.2" class="st32" width="17.6" height="10.4"/>
			<path class="st0" d="M312.1,793.5h-4.1c-0.3,0-0.5-0.1-0.7-0.3s-0.3-0.5-0.3-0.7s0.1-0.5,0.3-0.7s0.5-0.3,0.7-0.3h4.1
				c0.3,0,0.5,0.1,0.7,0.3c0.2,0.2,0.3,0.5,0.3,0.7s-0.1,0.5-0.3,0.7C312.6,793.4,312.4,793.5,312.1,793.5z"/>
			<path class="st0" d="M296.5,807.5c-0.3,0-0.5-0.1-0.7-0.3c-0.2-0.2-0.3-0.5-0.3-0.7v-5.2c0-0.3,0.1-0.5,0.3-0.7
				c0.2-0.2,0.5-0.3,0.7-0.3c0.3,0,0.5,0.1,0.7,0.3s0.3,0.5,0.3,0.7v5.2c0,0.3-0.1,0.5-0.3,0.7S296.8,807.5,296.5,807.5z"/>
			<path class="st0" d="M301.2,807.5c-0.3,0-0.5-0.1-0.7-0.3c-0.2-0.2-0.3-0.5-0.3-0.7v-5.2c0-0.3,0.1-0.5,0.3-0.7
				c0.2-0.2,0.5-0.3,0.7-0.3c0.3,0,0.5,0.1,0.7,0.3s0.3,0.5,0.3,0.7v5.2c0,0.3-0.1,0.5-0.3,0.7S301.5,807.5,301.2,807.5z"/>
			<path class="st0" d="M305.9,807.5c-0.3,0-0.5-0.1-0.7-0.3c-0.2-0.2-0.3-0.5-0.3-0.7v-5.2c0-0.3,0.1-0.5,0.3-0.7
				c0.2-0.2,0.5-0.3,0.7-0.3s0.5,0.1,0.7,0.3c0.2,0.2,0.3,0.5,0.3,0.7v5.2c0,0.3-0.1,0.5-0.3,0.7
				C306.4,807.4,306.1,807.5,305.9,807.5z"/>
			<path class="st33" d="M293.4,806.5H309v-8.3h-15.6V806.5z M310,808.6h-17.6c-0.3,0-0.5-0.1-0.7-0.3c-0.2-0.2-0.3-0.5-0.3-0.7
				v-10.4c0-0.3,0.1-0.5,0.3-0.7c0.2-0.2,0.5-0.3,0.7-0.3H310c0.3,0,0.5,0.1,0.7,0.3c0.2,0.2,0.3,0.5,0.3,0.7v10.4
				c0,0.3-0.1,0.5-0.3,0.7C310.6,808.5,310.3,808.6,310,808.6z"/>
		</g>
	</g>
	<g>
		<g>
			
				<image style="overflow:visible;opacity:0.14;" width="126" height="126" xlink:href="25C9FC00D4D04E2.png"  transform="matrix(1 0 0 1 99 599)">
			</image>
			<g>
				<circle class="st0" cx="162.3" cy="651.9" r="35.3"/>
			</g>
		</g>
		<text transform="matrix(1 0 0 1 78.9023 720.1387)"><tspan x="0" y="0" class="st8 st10">Standarize Sales </tspan><tspan x="11.9" y="25.6" class="st8 st10">Excellence For </tspan><tspan x="22" y="51.3" class="st8 st10">All Divisions</tspan></text>
		<g>
			<path class="st34" d="M162.5,666.8L162.5,666.8c5.2-0.2,10.1-1.8,14.3-4.6c0.1-0.1,0.3-0.2,0.3-0.4c0.1-0.2,0.1-0.3,0.1-0.5v-2.2
				c0.1-4.9-1.3-9.7-4-13.7c-2.7-4.1-6.5-7.3-11-9.2c-0.1-0.1-0.3-0.1-0.4-0.1c-0.1,0-0.3,0-0.4,0.1c-4.5,1.9-8.3,5.1-11,9.2
				c-2.7,4.1-4,8.9-4,13.7v2.2c0,0.2,0,0.3,0.1,0.5c0.1,0.2,0.2,0.3,0.3,0.4c4.4,2.9,9.6,4.5,14.9,4.6H162.5z"/>
			<path class="st35" d="M151.7,655.3C151.7,655.3,151.7,655.3,151.7,655.3l7.1-10.5c0.1-0.1,0.2-0.3,0.4-0.4
				c0.2-0.1,0.3-0.1,0.5-0.1c0.2,0,0.4,0,0.5,0.1s0.3,0.2,0.4,0.4l3.5,5.1l1.3-1.8c0.1-0.1,0.2-0.3,0.4-0.3c0.2-0.1,0.3-0.1,0.5-0.1
				c0.2,0,0.4,0,0.5,0.1c0.2,0.1,0.3,0.2,0.4,0.3l4.9,7.1c0,0,0,0,0,0s0,0,0,0h2.6c-2-12.7-12-16.6-12.9-16.9
				c-3.1,1.3-5.8,3.3-7.9,5.9c-2.7,3.1-4.4,6.9-5,11L151.7,655.3z"/>
			<path class="st35" d="M159.8,647.4L159.8,647.4L159.8,647.4z"/>
			<polygon class="st36" points="169.6,655.3 166.4,650.6 164.8,652.9 166.6,655.3 			"/>
			<polygon class="st37" points="164.8,652.9 163.2,655.3 166.6,655.3 			"/>
			<polygon class="st35" points="160.4,648.2 159.8,647.4 159.8,647.4 			"/>
			<polygon class="st36" points="157,651.4 159.8,655.3 160.5,655.3 162.9,651.9 160.4,648.2 159.8,647.4 			"/>
			<polygon class="st37" points="157,651.4 154.4,655.3 159.8,655.3 			"/>
			<path class="st38" d="M162.9,663c0.1-0.2,0.1-0.4,0-0.5c-0.1-0.2-0.2-0.3-0.4-0.4l-1-0.4c-0.4-0.2-0.7-0.4-1-0.7
				c-0.3-0.3-0.5-0.7-0.6-1.1c-0.1-0.4-0.2-0.8-0.1-1.2c0.1-0.4,0.2-0.8,0.4-1.2h-11.3c-0.1,0.5-0.1,1.1-0.1,1.6v1.6
				c2.3,1.4,4.8,2.5,7.5,3.2v0c1.8,0.5,3.7,0.7,5.6,0.7L162.9,663C162.8,663,162.8,663,162.9,663z"/>
			<path class="st38" d="M175.1,657.5h-12.1l-0.9,1.1c-0.1,0.1-0.1,0.2-0.1,0.3c0,0.1,0,0.2,0,0.3c0,0.1,0.1,0.2,0.1,0.3
				c0.1,0.1,0.2,0.1,0.3,0.2l1,0.4c0.4,0.2,0.7,0.4,1,0.7c0.3,0.3,0.5,0.7,0.6,1c0.1,0.4,0.2,0.8,0.1,1.2c0,0.4-0.2,0.8-0.4,1.1
				l-0.2,0.3c0.6-0.1,1.2-0.2,1.8-0.3c1.1-0.2,2.1-0.5,3.1-0.8c0.2,0,0.5-0.2,0.5-0.2c1.8-0.6,3.6-1.5,5.2-2.5l0-1.6
				C175.2,658.6,175.2,658,175.1,657.5z"/>
			<path class="st0" d="M163.7,660.2c-0.1,0-0.2-0.1-0.3-0.1l-1-0.4c-0.1,0-0.2-0.1-0.3-0.2c-0.1-0.1-0.1-0.2-0.1-0.3
				c0-0.1,0-0.2,0-0.3c0-0.1,0.1-0.2,0.1-0.3l0.9-1.1h-2.8c-0.2,0.3-0.4,0.7-0.4,1.2c-0.1,0.4,0,0.8,0.1,1.2
				c0.1,0.4,0.3,0.8,0.6,1.1c0.3,0.3,0.6,0.6,1,0.7l1,0.4c0.2,0.1,0.3,0.2,0.4,0.4c0.1,0.2,0.1,0.4,0,0.5c0,0,0,0,0,0.1l-0.9,1.6
				c0.9,0,1.8,0,2.7-0.2l0.2-0.3c0.4-0.7,0.5-1.5,0.3-2.2C164.8,661.2,164.3,660.6,163.7,660.2z"/>
			<polygon class="st39" points="167.7,661 171,661 169.4,659.2 			"/>
			<polygon class="st39" points="154.6,662.4 157.9,662.4 156.3,660.5 			"/>
			<polygon class="st39" points="153.1,658.5 151.4,660.4 154.7,660.4 			"/>
		</g>
	</g>
	<g>
		<g>
			
				<image style="overflow:visible;opacity:0.14;" width="126" height="125" xlink:href="25C9FC00D4D04E0.png"  transform="matrix(1 0 0 1 51 405)">
			</image>
			<g>
				<path class="st0" d="M149.6,457.7c0,19.5-19.9,35.3-39.4,35.3S79,477.2,79,457.7s15.8-35.3,35.3-35.3S149.6,438.2,149.6,457.7z"
					/>
			</g>
		</g>
		<text transform="matrix(1 0 0 1 78.0981 524.2705)"><tspan x="0" y="0" class="st8 st10">Guided </tspan><tspan x="-39.2" y="25.6" class="st8 st10">On-Boarding &amp; </tspan><tspan x="-59.4" y="51.3" class="st8 st10">Service Experience</tspan></text>
		<g>
			<path class="st0" d="M108.7,458.2c0-1.1,0.3-2,0.9-2.8c-0.7-0.5-1.6-0.7-2.5-0.7c-2.6,0-4.7,2-4.7,4.5v2h7.4
				C109.2,460.4,108.7,459.4,108.7,458.2z"/>
			<path class="st40" d="M120.8,454.7c-0.9,0-1.8,0.3-2.5,0.7c0.6,0.8,0.9,1.8,0.9,2.8c0,1.2-0.4,2.2-1.1,3h7.4v-2
				C125.5,456.7,123.4,454.7,120.8,454.7z"/>
			<path class="st41" d="M124.2,453.5c1.2-0.9,1.9-2.3,1.9-3.9c0-2.8-2.4-5-5.3-5c-2.9,0-5.3,2.3-5.3,5c0,1.6,0.7,3,1.9,3.9
				c-0.3,0.2-0.5,0.3-0.7,0.5c-0.8-0.5-1.7-0.8-2.8-0.8c-1.1,0-2,0.3-2.8,0.8c-0.2-0.2-0.5-0.3-0.7-0.5c1.2-0.9,1.9-2.3,1.9-3.9
				c0-2.8-2.4-5-5.3-5c-2.9,0-5.3,2.3-5.3,5.1c0,1.6,0.7,3,1.9,3.9c-2,1.1-3.5,3.3-3.5,5.7v3c0,0.6,0.5,1,1.1,1h7.7
				c-1.2,1.2-1.9,2.8-1.9,4.5v3c0,0.6,0.5,1,1.1,1h11.6c0.6,0,1.1-0.5,1.1-1v-3c0-1.8-0.7-3.4-1.9-4.5h7.7c0.6,0,1.1-0.5,1.1-1v-3
				C127.6,456.8,126.2,454.6,124.2,453.5z"/>
			<path class="st41" d="M118.7,467.8v2h-9.5v-2c0-2.5,2.1-4.5,4.7-4.5S118.7,465.3,118.7,467.8z"/>
			<path class="st0" d="M102.4,459.2c0-2.5,2.1-4.5,4.7-4.5c0.9,0,1.8,0.3,2.5,0.7c-0.6,0.8-0.9,1.8-0.9,2.8c0,1.2,0.4,2.2,1.1,3
				h-7.4V459.2z"/>
			<path class="st41" d="M107.2,452.7c1.7,0,3.2-1.4,3.2-3c0-1.7-1.4-3-3.2-3s-3.2,1.4-3.2,3C104,451.3,105.4,452.7,107.2,452.7z"/>
			<path class="st41" d="M114,455.2c0.5,0,0.9,0.1,1.3,0.3c0.3,0.2,0.6,0.3,0.9,0.6c0.3,0.3,0.5,0.6,0.7,0.9
				c0.2,0.4,0.3,0.9,0.3,1.4c0,0.9-0.4,1.7-1.1,2.3c-0.3,0.3-0.7,0.5-1.1,0.6c-0.3,0.1-0.7,0.2-1.1,0.2c-0.4,0-0.7-0.1-1.1-0.2
				c-0.4-0.2-0.7-0.4-1.1-0.6c-0.6-0.6-1.1-1.4-1.1-2.3c0-0.5,0.1-1,0.4-1.4c0.2-0.3,0.4-0.6,0.7-0.9c0.3-0.3,0.5-0.4,0.9-0.6
				C113.1,455.3,113.5,455.2,114,455.2z"/>
			<path class="st40" d="M125.5,461.3h-7.4c0.7-0.9,1.1-1.9,1.1-3c0-1.1-0.3-2-0.9-2.8c0.7-0.5,1.6-0.7,2.5-0.7c2.6,0,4.7,2,4.7,4.5
				V461.3z"/>
			<path class="st41" d="M120.8,452.7c1.7,0,3.2-1.4,3.2-3c0-1.7-1.4-3-3.2-3c-1.7,0-3.2,1.4-3.2,3
				C117.7,451.3,119.1,452.7,120.8,452.7z"/>
			<path class="st40" d="M109.3,467.8v2h9.5v-2c0-2.5-2.1-4.5-4.7-4.5S109.3,465.3,109.3,467.8z"/>
			<path class="st40" d="M111.2,456.9c-0.3,0.4-0.4,0.9-0.4,1.4c0,0.9,0.4,1.7,1.1,2.3c0.3,0.3,0.7,0.5,1.1,0.6
				c0.3,0.1,0.7,0.2,1.1,0.2c0.4,0,0.7-0.1,1.1-0.2c0.4-0.2,0.7-0.4,1.1-0.6c0.6-0.6,1.1-1.4,1.1-2.3c0-0.5-0.1-1-0.4-1.4
				c-0.2-0.3-0.4-0.6-0.7-0.9c-0.3-0.3-0.5-0.4-0.9-0.6c-0.3-0.2-0.7-0.3-1.2-0.3c-0.5,0-0.9,0.1-1.3,0.3c-0.3,0.2-0.6,0.3-0.9,0.6
				C111.6,456.3,111.4,456.6,111.2,456.9z"/>
			<path class="st40" d="M107.2,452.7c1.7,0,3.2-1.4,3.2-3c0-1.7-1.4-3-3.2-3s-3.2,1.4-3.2,3C104,451.3,105.4,452.7,107.2,452.7z"/>
			<path class="st0" d="M120.8,452.7c1.7,0,3.2-1.4,3.2-3c0-1.7-1.4-3-3.2-3c-1.7,0-3.2,1.4-3.2,3
				C117.7,451.3,119.1,452.7,120.8,452.7z"/>
		</g>
	</g>
	<g>
		<g>
			
				<image style="overflow:visible;opacity:0.14;" width="126" height="126" xlink:href="25C9FC00D4D04FE.png"  transform="matrix(1 0 0 1 100 211)">
			</image>
			<g>
				<circle class="st0" cx="163" cy="263.8" r="35.3"/>
			</g>
		</g>
		<text transform="matrix(1 0 0 1 85.9199 332.2456)"><tspan x="0" y="0" class="st8 st10">Deeper Dealer </tspan><tspan x="-11.8" y="25.6" class="st8 st10">Management To </tspan><tspan x="-20.2" y="51.3" class="st8 st10">Grow AGI’s Brand</tspan></text>
		<g>
			<path class="st0" d="M153.2,266.9v-11.3c-1.4,0-2.5,1.1-2.5,2.5V272c0,1.4,1.1,2.5,2.5,2.5H167c1.4,0,2.5-1.1,2.5-2.5h-11.3
				C155.5,272,153.2,269.7,153.2,266.9z"/>
			<path class="st42" d="M172,250.7h-13.8c-1.4,0-2.5,1.1-2.5,2.5v1.3v1.3v11.3c0,1.4,1.1,2.5,2.5,2.5h11.3h1.3h1.3
				c1.4,0,2.5-1.1,2.5-2.5v-13.8C174.5,251.8,173.4,250.7,172,250.7z"/>
			<path class="st42" d="M172,260.1c0,0.7-0.6,1.3-1.3,1.3h-1.3h-3.1v4.4c0,0.7-0.6,1.3-1.3,1.3c-0.7,0-1.3-0.6-1.3-1.3v-4.4h-4.4
				c-0.7,0-1.3-0.6-1.3-1.3c0-0.7,0.6-1.3,1.3-1.3h4.4v-3.1v-1.3c0-0.7,0.6-1.3,1.3-1.3c0.7,0,1.3,0.6,1.3,1.3v1.3v3.1h3.1h1.3
				C171.5,258.8,172,259.4,172,260.1z"/>
			<path class="st43" d="M172,248.2h-13.8c-2.8,0-5,2.3-5,5c-2.8,0-5,2.3-5,5V272c0,2.8,2.3,5,5,5H167c2.8,0,5-2.3,5-5
				c2.8,0,5-2.3,5-5v-13.8C177,250.4,174.8,248.2,172,248.2z"/>
			<path class="st44" d="M174.5,266.9c0,1.4-1.1,2.5-2.5,2.5h-1.3h-1.3h-11.3c-1.4,0-2.5-1.1-2.5-2.5v-11.3v-1.3v-1.3
				c0-1.4,1.1-2.5,2.5-2.5H172c1.4,0,2.5,1.1,2.5,2.5V266.9z"/>
			<path class="st0" d="M167,274.5h-13.8c-1.4,0-2.5-1.1-2.5-2.5v-13.8c0-1.4,1.1-2.5,2.5-2.5v11.3c0,2.8,2.3,5,5,5h11.3
				C169.5,273.3,168.4,274.5,167,274.5z"/>
			<path class="st43" d="M170.8,258.8h-1.3h-3.1v-3.1v-1.3c0-0.7-0.6-1.3-1.3-1.3c-0.7,0-1.3,0.6-1.3,1.3v1.3v3.1h-4.4
				c-0.7,0-1.3,0.6-1.3,1.3c0,0.7,0.6,1.3,1.3,1.3h4.4v4.4c0,0.7,0.6,1.3,1.3,1.3c0.7,0,1.3-0.6,1.3-1.3v-4.4h3.1h1.3
				c0.7,0,1.3-0.6,1.3-1.3C172,259.4,171.5,258.8,170.8,258.8z"/>
		</g>
	</g>
	<g>
		<g>
			<g>
				
					<image style="overflow:visible;opacity:0.14;" width="126" height="125" xlink:href="25C9FC00D4D04E3.png"  transform="matrix(1 0 0 1 241 69)">
				</image>
				<g>
					<circle class="st0" cx="304.2" cy="121.7" r="35.3"/>
				</g>
			</g>
			<text transform="matrix(1 0 0 1 192.062 190.1465)"><tspan x="0" y="0" class="st8 st10">Agility &amp; Governance </tspan><tspan x="-0.6" y="25.6" class="st8 st10">For New Acquisitions</tspan></text>
		</g>
		<g>
			<polyline class="st29" points="298.1,125.7 296.1,137.9 303.5,133.8 311,137.9 308.9,125.7 			"/>
			<path class="st45" d="M311,139.2c-0.2,0-0.4-0.1-0.6-0.2l-6.8-3.7l-6.8,3.7c-0.2,0.1-0.5,0.2-0.7,0.2c-0.3,0-0.5-0.1-0.7-0.2
				c-0.2-0.1-0.4-0.3-0.5-0.6c-0.1-0.2-0.1-0.5-0.1-0.7l2-12.1c0.1-0.4,0.3-0.7,0.5-0.9c0.3-0.2,0.7-0.3,1-0.2
				c0.4,0.1,0.7,0.3,0.9,0.5c0.2,0.3,0.3,0.7,0.2,1l-1.6,9.4l5-2.7c0.2-0.1,0.4-0.2,0.6-0.2c0.2,0,0.4,0.1,0.6,0.2l5,2.7l-1.6-9.4
				c-0.1-0.4,0-0.7,0.2-1c0.2-0.3,0.5-0.5,0.9-0.5c0.4-0.1,0.7,0,1,0.2c0.3,0.2,0.5,0.5,0.5,0.9l2,12.1c0,0.2,0,0.4,0,0.6
				c-0.1,0.2-0.1,0.4-0.3,0.5c-0.1,0.1-0.3,0.3-0.5,0.4C311.3,139.2,311.2,139.2,311,139.2z"/>
			
				<ellipse transform="matrix(0.9239 -0.3827 0.3827 0.9239 -21.6537 125.0595)" class="st29" cx="303.5" cy="117" rx="10.1" ry="10.1"/>
			<path class="st45" d="M303.5,108.2c-1.7,0-3.4,0.5-4.9,1.5s-2.6,2.3-3.2,3.9s-0.8,3.4-0.5,5.1c0.3,1.7,1.2,3.3,2.4,4.5
				c1.2,1.2,2.8,2.1,4.5,2.4c1.7,0.3,3.5,0.2,5.1-0.5c1.6-0.7,3-1.8,3.9-3.2s1.5-3.1,1.5-4.9c0-2.3-0.9-4.6-2.6-6.2
				C308.1,109.1,305.9,108.2,303.5,108.2z M303.5,128.4c-2.3,0-4.5-0.7-6.4-1.9c-1.9-1.3-3.4-3.1-4.2-5.1c-0.9-2.1-1.1-4.4-0.7-6.6
				c0.4-2.2,1.5-4.3,3.1-5.9c1.6-1.6,3.6-2.7,5.9-3.1c2.2-0.4,4.5-0.2,6.6,0.7c2.1,0.9,3.9,2.3,5.1,4.2c1.3,1.9,1.9,4.1,1.9,6.4
				c0,3-1.2,6-3.4,8.1C309.5,127.2,306.6,128.4,303.5,128.4z"/>
			<path class="st0" d="M302.9,122.4c-0.3,0-0.6-0.1-0.8-0.3l-3.4-2.7c-0.3-0.2-0.5-0.5-0.5-0.9s0.1-0.7,0.3-1
				c0.2-0.3,0.5-0.5,0.9-0.5c0.4,0,0.7,0.1,1,0.3l2.2,1.8l3.9-6.2c0.1-0.1,0.2-0.3,0.4-0.4c0.1-0.1,0.3-0.2,0.5-0.2
				c0.2,0,0.4,0,0.5,0c0.2,0,0.3,0.1,0.5,0.2s0.3,0.2,0.4,0.4c0.1,0.1,0.2,0.3,0.2,0.5s0,0.4,0,0.5c0,0.2-0.1,0.3-0.2,0.5l-4.7,7.4
				c-0.1,0.2-0.2,0.3-0.4,0.4c-0.2,0.1-0.3,0.2-0.5,0.2C303,122.3,302.9,122.4,302.9,122.4z"/>
		</g>
	</g>
</g>
<g>
	<path class="st30" d="M429.4,607.3h24.9l5.3,47.6H439l-0.2-7.1H426l-3.3,7.1h-19.1L429.4,607.3z M438.3,617.8l-8,17.6h8l0-17.6
		C438.4,617.8,438.3,617.8,438.3,617.8z M485.1,639l1.9-8.8h25.1l-5.4,24.3c-8,1.9-17,3.2-25,3.2c-17.5,0-23.8-10.7-20.7-25.5
		c3.2-14.8,14-25.4,32.1-25.4c15,0,19.5,16.3,19.5,16.3h-18c0.3-1.6-0.1-2.6-0.8-3.2c-0.7-0.6-1.8-0.9-3-0.9c-2.9,0-5.2,1.5-6.5,3.5
		c-1.4,2-2.7,6.8-3.6,10.9c-1,4.7-1.3,8-0.7,9.6c0.7,2,2.4,2.9,5,2.9c1.8,0,3.7-0.3,5.4-1l1.3-5.9C491.7,639,485.1,639,485.1,639z
		 M510.8,656.6l10.2-47.6h19l-10.2,47.6H510.8L510.8,656.6z M564.4,634.3c18-2.1,27.5-1.5,32.2-0.8l-1.1,5
		C580.7,635.1,570.9,634.2,564.4,634.3z M542.4,647.6c7.7,0.2,26.7,1.4,49,8.5l-0.1,0.6h-4.6c-9.7-3-24.7-5.7-45.4-4.1L542.4,647.6
		L542.4,647.6z M556.5,636c14.1-0.4,33.6,5.1,38.1,6.4l-2.6,11.3C586.8,650.1,576.3,643.9,556.5,636z M545.1,636
		c5.9,1,16.6,4.1,34.2,12.5c-8.4-3.1-20.2-5.9-35.6-6.3L545.1,636z M551.5,607.3h50.9l-3.8,16.8c-16.4-0.7-31.2,5.3-41.6,9.8
		c-0.8,0.2-1.6,0.5-2.3,0.7c-2.9-1.1-5.7-2.2-8.6-3.3L551.5,607.3L551.5,607.3z M563.4,632.9c24.7-7.4,32.7-5.5,34.5-5.4l-0.5,3
		C585.3,629,573.2,630.6,563.4,632.9z"/>
</g>
<g id="AdobeStock_x5F_221739842.psd_1_">
	
		<image style="overflow:visible;" width="1748" height="579" id="Layer_0_1_" xlink:href="25C9FC00D4D04E7.png"  transform="matrix(0.1397 0 0 0.1397 373.838 256.2869)">
	</image>
</g>
</svg>
