<?xml version="1.0" encoding="utf-8"?>
<!-- Generator: Adobe Illustrator 25.3.1, SVG Export Plug-In . SVG Version: 6.00 Build 0)  -->
<svg version="1.1" id="Layer_1" xmlns="http://www.w3.org/2000/svg" xmlns:xlink="http://www.w3.org/1999/xlink" x="0px" y="0px"
	 viewBox="0 0 600 148" style="enable-background:new 0 0 600 148;" xml:space="preserve">
<style type="text/css">
	.st0{fill-rule:evenodd;clip-rule:evenodd;fill:#006A35;}
	.st1{fill-rule:evenodd;clip-rule:evenodd;fill:#FFFFFF;}
	.st2{filter:url(#Adobe_OpacityMaskFilter);}
	.st3{mask:url(#b_1_);fill-rule:evenodd;clip-rule:evenodd;fill:#00A1E0;}
	.st4{fill-rule:evenodd;clip-rule:evenodd;fill:#FFFFFE;}
	.st5{fill:#4D4D4D;}
</style>
<g>
	<path class="st0" d="M48.7,36.2h39.3l8.4,75.3H64l-0.3-11.2H43.4l-5.2,11.2H8L48.7,36.2z M62.9,55.7L50.3,83.5H63l0.1-27.9
		C63.1,55.7,62.9,55.7,62.9,55.7z M136.7,86.3l3.2-16.7h39.6l-8.5,41.5c-12.6,3.1-26.9,5.1-39.4,5.1c-27.7,0-37.6-16.8-32.7-40.2
		c5-23.4,22.1-40.2,50.7-40.2c23.7,0,30.9,25.5,30.9,25.5H152c0.4-2.5-0.2-4.1-1.3-5c-1.1-1-2.8-1.4-4.8-1.4
		c-4.6,0-8.2,2.4-10.3,5.5c-2.2,3.1-4.2,10.7-5.6,17.3c-1.6,7.5-2.1,12.7-1.2,15.1c1.1,3.2,3.9,4.6,7.9,4.6c2.9,0,5.8-0.4,8.5-1.6
		l2-9.3H136.7z M177.4,114.2l16.1-75.3h30l-16.1,75.3H177.4L177.4,114.2z M262.2,79c28.5-3.3,43.5-2.4,51-1.2l-1.8,7.8
		C288,80.4,272.4,78.9,262.2,79z M227.5,99.9c12.1,0.3,42.3,2.3,77.5,13.4l-0.2,0.9h-7.3c-15.3-4.7-39.1-8.9-71.8-6.4L227.5,99.9
		L227.5,99.9z M249.7,81.8c22.4-0.6,53.1,8,60.3,10.1l-4,17.9C297.6,104,281,94.3,249.7,81.8z M231.7,81.9c9.3,1.6,26.3,6.4,54,19.8
		c-13.3-4.9-31.9-9.4-56.2-10L231.7,81.9z M241.7,36.2h80.5l-6,26.6c-26-1.1-49.3,8.4-65.8,15.5c-1.3,0.4-2.5,0.7-3.7,1.1
		c-4.5-1.8-9.1-3.5-13.7-5.2L241.7,36.2L241.7,36.2z M260.5,77c39.1-11.7,51.7-8.7,54.5-8.6l-0.9,4.7C295.2,70.7,276,73.3,260.5,77z
		"/>
</g>
<g>
	<g>
		<path id="a_3_" class="st1" d="M432.2,19.2H590v110.2H432.2V19.2z"/>
	</g>
	<desc>A cloud computing company based in San Francisco, California, United States</desc>
	<g>
		<defs>
			<filter id="Adobe_OpacityMaskFilter" filterUnits="userSpaceOnUse" x="431.8" y="19.4" width="157.9" height="110.5">
				<feColorMatrix  type="matrix" values="1 0 0 0 0  0 1 0 0 0  0 0 1 0 0  0 0 0 1 0"/>
			</filter>
		</defs>
		<mask maskUnits="userSpaceOnUse" x="431.8" y="19.4" width="157.9" height="110.5" id="b_1_">
			<g class="st2">
				<path id="a_1_" class="st1" d="M432,19.4h157.8v110.2H432V19.4z"/>
			</g>
		</mask>
		<path class="st3" d="M497.5,31.4c5.1-5.3,12.2-8.6,20-8.6c10.4,0,19.5,5.8,24.4,14.4c4.3-1.9,9-2.9,13.7-2.9
			c18.8,0,34.1,15.4,34.1,34.3S574.4,103,555.6,103c-2.3,0-4.5-0.2-6.7-0.7c-4.3,7.6-12.4,12.8-21.7,12.8c-3.8,0-7.5-0.8-10.9-2.5
			c-4.3,10.2-14.4,17.3-26.1,17.3c-12.2,0-22.6-7.7-26.6-18.6c-1.8,0.4-3.6,0.6-5.4,0.6c-14.6,0-26.3-11.9-26.3-26.6
			c0-9.9,5.3-18.4,13.2-23.1c-1.7-3.8-2.5-8-2.5-12.2c0-16.9,13.7-30.6,30.7-30.6C483.1,19.4,492,24.1,497.5,31.4"/>
		<path class="st4" d="M454.9,76.7c-0.1,0.3,0,0.3,0.1,0.4c0.3,0.2,0.6,0.4,0.9,0.5c1.6,0.9,3.1,1.1,4.7,1.1c3.2,0,5.2-1.7,5.2-4.5
			v0c0-2.6-2.2-3.5-4.3-4.2l-0.3-0.1c-1.6-0.5-2.9-1-2.9-2v-0.1c0-0.9,0.8-1.6,2-1.6c1.4,0,3,0.5,4,1c0,0,0.4,0.3,0.5-0.2
			c0.1-0.5,0.3-1.2,0.5-1.5c0.2-0.2,0.1-0.4-0.1-0.5c-1.2-0.7-2.9-1.2-4.6-1.2l-0.4,0c-2.9,0-5,1.8-5,4.4v0.1c0,2.7,2.2,3.6,4.3,4.2
			l0.3,0.1c1.5,0.5,2.9,0.9,2.9,2v0c0,1-0.9,1.8-2.3,1.8c-0.5,0-2.3,0-4.2-1.2c-0.2-0.1-0.4-0.2-0.5-0.3c-0.1-0.1-0.3-0.2-0.4,0.1
			L454.9,76.7 M501.9,76.7c-0.1,0.3,0,0.3,0.1,0.4c0.3,0.2,0.6,0.4,0.9,0.5c1.6,0.9,3.1,1.1,4.7,1.1c3.2,0,5.2-1.7,5.2-4.5v0
			c0-2.6-2.2-3.5-4.3-4.2l-0.3-0.1c-1.6-0.5-2.9-1-2.9-2v-0.1c0-0.9,0.8-1.6,2-1.6c1.4,0,3,0.5,4,1c0,0,0.4,0.3,0.5-0.2
			c0.1-0.5,0.3-1.2,0.5-1.5c0.2-0.2,0-0.4-0.1-0.5c-1.2-0.7-2.9-1.2-4.6-1.2l-0.4,0c-2.9,0-5,1.8-5,4.4v0.1c0,2.7,2.2,3.6,4.3,4.2
			l0.3,0.1c1.5,0.5,2.9,0.9,2.9,2v0c0,1-0.9,1.8-2.3,1.8c-0.5,0-2.3,0-4.2-1.2c-0.2-0.1-0.4-0.2-0.5-0.3c-0.1,0-0.3-0.1-0.4,0.1
			L501.9,76.7 M534.6,71.2c0,1.6-0.3,2.8-0.9,3.7c-0.6,0.9-1.4,1.3-2.6,1.3c-1.2,0-2.1-0.4-2.6-1.3c-0.6-0.9-0.9-2.1-0.9-3.7
			s0.3-2.8,0.9-3.7c0.6-0.9,1.4-1.3,2.6-1.3c1.2,0,2.1,0.4,2.6,1.3C534.3,68.4,534.6,69.7,534.6,71.2 M537.3,68.3
			c-0.3-0.9-0.7-1.7-1.2-2.3c-0.6-0.7-1.2-1.2-2.1-1.6c-0.8-0.4-1.8-0.6-2.9-0.6s-2.1,0.2-2.9,0.6c-0.8,0.4-1.5,0.9-2.1,1.6
			c-0.5,0.7-1,1.5-1.2,2.3c-0.3,0.9-0.4,1.9-0.4,2.9c0,1,0.1,2,0.4,2.9c0.3,0.9,0.7,1.7,1.2,2.3c0.6,0.7,1.3,1.2,2.1,1.6
			c0.8,0.4,1.8,0.6,2.9,0.6s2.1-0.2,2.9-0.6s1.5-0.9,2.1-1.6c0.6-0.7,1-1.5,1.2-2.3c0.3-0.9,0.4-1.9,0.4-2.9
			C537.7,70.2,537.5,69.2,537.3,68.3 M559.5,75.8c-0.1-0.3-0.3-0.2-0.3-0.2c-0.4,0.2-0.8,0.3-1.3,0.4c-0.5,0.1-1,0.1-1.5,0.1
			c-1.3,0-2.3-0.4-3.1-1.2c-0.7-0.8-1.2-2-1.2-3.7c0-1.5,0.4-2.7,1-3.6c0.7-0.9,1.7-1.3,3-1.3c1.1,0,2,0.1,2.9,0.4
			c0,0,0.2,0.1,0.3-0.2c0.2-0.7,0.4-1.1,0.7-1.8c0.1-0.2-0.1-0.3-0.2-0.3c-0.4-0.1-1.2-0.4-1.8-0.5c-0.6-0.1-1.3-0.1-2-0.1
			c-1.1,0-2.1,0.2-3,0.6c-0.9,0.4-1.6,0.9-2.2,1.6c-0.6,0.7-1,1.5-1.3,2.3c-0.3,0.9-0.4,1.9-0.4,2.9c0,2.2,0.6,4.1,1.8,5.4
			c1.2,1.3,3,2,5.3,2c1.4,0,2.8-0.3,3.8-0.7c0,0,0.2-0.1,0.1-0.3L559.5,75.8 M564.2,69.7c0.1-0.9,0.4-1.6,0.7-2.2
			c0.6-0.9,1.4-1.3,2.6-1.3c1.2,0,2,0.5,2.6,1.3c0.4,0.6,0.5,1.3,0.6,2.2H564.2L564.2,69.7z M573.3,67.8c-0.2-0.9-0.8-1.7-1.2-2.1
			c-0.6-0.6-1.2-1.1-1.7-1.3c-0.8-0.4-1.7-0.5-2.6-0.5c-1.1,0-2.2,0.2-3,0.6c-0.8,0.4-1.5,0.9-2.1,1.6c-0.6,0.7-1,1.5-1.2,2.4
			c-0.3,0.9-0.4,1.9-0.4,2.9c0,1.1,0.1,2,0.4,2.9c0.3,0.9,0.7,1.7,1.3,2.3c0.6,0.7,1.4,1.2,2.3,1.5c0.9,0.4,2,0.5,3.3,0.5
			c2.6,0,4-0.6,4.6-0.9c0.1-0.1,0.2-0.2,0.1-0.4l-0.6-1.7c-0.1-0.3-0.3-0.2-0.3-0.2c-0.7,0.2-1.6,0.7-3.8,0.7
			c-1.4,0-2.5-0.4-3.1-1.1c-0.7-0.7-1-1.7-1.1-3l9.2,0c0,0,0.2,0,0.3-0.2C573.6,71.6,573.9,69.9,573.3,67.8L573.3,67.8z M491,69.7
			c0.1-0.9,0.4-1.6,0.7-2.2c0.6-0.9,1.4-1.3,2.6-1.3c1.2,0,2,0.5,2.6,1.3c0.4,0.6,0.5,1.3,0.6,2.2H491L491,69.7z M500.1,67.8
			c-0.2-0.9-0.8-1.7-1.2-2.1c-0.6-0.6-1.2-1.1-1.7-1.3c-0.8-0.4-1.7-0.5-2.6-0.5c-1.1,0-2.2,0.2-3,0.6c-0.8,0.4-1.5,0.9-2.1,1.6
			c-0.6,0.7-1,1.5-1.2,2.4c-0.3,0.9-0.4,1.9-0.4,2.9c0,1.1,0.1,2,0.4,2.9c0.3,0.9,0.7,1.7,1.3,2.3c0.6,0.7,1.4,1.2,2.3,1.5
			c0.9,0.4,2,0.5,3.3,0.5c2.6,0,4-0.6,4.6-0.9c0.1-0.1,0.2-0.2,0.1-0.4l-0.6-1.7c-0.1-0.3-0.3-0.2-0.3-0.2c-0.7,0.2-1.6,0.7-3.8,0.7
			c-1.4,0-2.5-0.4-3.1-1.1c-0.7-0.7-1-1.7-1.1-3l9.2,0c0,0,0.2,0,0.3-0.2C500.4,71.6,500.7,69.9,500.1,67.8L500.1,67.8z M471.1,75.8
			c-0.4-0.3-0.4-0.4-0.5-0.5c-0.2-0.3-0.3-0.7-0.3-1.2c0-0.8,0.3-1.4,0.8-1.8c0,0,0.8-0.7,2.7-0.7c0.8,0,1.7,0.1,2.5,0.2V76h0
			c0,0-1.2,0.3-2.5,0.3C472,76.5,471.1,75.8,471.1,75.8L471.1,75.8z M474.8,69.3c-0.4,0-0.8,0-1.4,0c-0.8,0-1.5,0.1-2.2,0.3
			c-0.7,0.2-1.4,0.5-1.9,0.9c-0.5,0.4-1,0.9-1.3,1.5c-0.3,0.6-0.5,1.3-0.5,2.1c0,0.8,0.1,1.5,0.4,2.1c0.3,0.6,0.7,1.1,1.2,1.4
			c0.5,0.4,1.1,0.6,1.9,0.8c0.7,0.2,1.5,0.2,2.4,0.2c0.9,0,1.9-0.1,2.8-0.2c0.8-0.1,1.5-0.3,2.3-0.4c0.3-0.1,0.6-0.2,0.6-0.2
			c0.2-0.1,0.2-0.3,0.2-0.3l0-8.3c0-1.8-0.5-3.2-1.4-4c-1-0.8-2.4-1.3-4.2-1.3c-0.7,0-1.8,0.1-2.4,0.2c0,0-2,0.4-2.8,1
			c0,0-0.2,0.1-0.1,0.4l0.6,1.7c0.1,0.2,0.3,0.1,0.3,0.1s0.1,0,0.1-0.1c1.7-1,4-0.9,4-0.9c1,0,1.7,0.2,2.3,0.6
			c0.5,0.4,0.8,1,0.8,2.2v0.4C475.5,69.4,474.8,69.3,474.8,69.3L474.8,69.3z M548.6,64.5c0.1-0.1,0-0.3-0.1-0.3c0,0,0,0,0,0
			c-0.2-0.1-0.9-0.2-1.5-0.3c-1.1-0.1-1.8,0.1-2.4,0.4c-0.6,0.3-1.2,0.7-1.5,1.1l0-0.8c0-0.1-0.1-0.3-0.3-0.3h-2.4
			c-0.1,0-0.3,0.1-0.3,0.3v13.4c0,0.2,0.1,0.3,0.3,0.3h2.4c0.2,0,0.3-0.1,0.3-0.3v-6.9c0-0.9,0.1-1.8,0.3-2.4c0.2-0.6,0.5-1,0.8-1.3
			c0.3-0.3,0.7-0.5,1.1-0.7c0.4-0.1,0.8-0.2,1.2-0.2c0.5,0,1,0.1,1,0.1c0.2,0,0.3-0.1,0.3-0.2C548,66,548.4,64.8,548.6,64.5"/>
		<path class="st4" d="M525.6,58.9c-0.3-0.1-0.6-0.2-0.9-0.2c-0.4-0.1-0.8-0.1-1.2-0.1c-1.6,0-2.8,0.4-3.7,1.3
			c-0.9,0.9-1.4,2.2-1.7,3.9l-0.1,0.6h-2c0,0-0.2,0-0.3,0.3l-0.3,1.8c0,0.2,0.1,0.3,0.3,0.3h1.9l-1.9,10.8c-0.2,0.9-0.3,1.6-0.5,2.1
			c-0.2,0.5-0.4,0.9-0.6,1.2c-0.2,0.3-0.4,0.5-0.8,0.6c-0.3,0.1-0.6,0.1-1,0.1c-0.2,0-0.5,0-0.7-0.1c-0.2,0-0.3-0.1-0.5-0.2
			c0,0-0.2-0.1-0.3,0.1c-0.1,0.2-0.6,1.6-0.6,1.8c-0.1,0.2,0,0.3,0.1,0.3c0.3,0.1,0.4,0.1,0.8,0.2c0.5,0.1,0.9,0.1,1.3,0.1
			c0.8,0,1.5-0.1,2.1-0.3c0.6-0.2,1.1-0.6,1.6-1.1c0.5-0.6,0.8-1.1,1.1-1.9c0.3-0.8,0.6-1.8,0.8-2.9l1.9-11h2.8c0,0,0.2,0,0.3-0.3
			l0.3-1.8c0-0.2-0.1-0.3-0.3-0.3h-2.8c0-0.1,0.1-1,0.5-1.9c0.1-0.3,0.3-0.6,0.5-0.8c0.3-0.3,0.6-0.5,1-0.6c0.2-0.1,0.5-0.1,0.8-0.1
			c0.3,0,0.5,0,0.7,0.1c0.3,0.1,0.4,0.1,0.4,0.1c0.3,0.1,0.3,0,0.4-0.1l0.7-1.8C525.8,59,525.7,58.9,525.6,58.9 M485,78.1
			c0,0.2-0.1,0.3-0.3,0.3h-2.4c-0.1,0-0.3-0.1-0.3-0.3V58.3c0-0.2,0.1-0.3,0.3-0.3h2.4c0.1,0,0.3,0.1,0.3,0.3v20"/>
	</g>
</g>
<rect x="374" y="17.3" transform="matrix(-1 -1.224647e-16 1.224647e-16 -1 750.6464 148.82)" class="st5" width="2.7" height="114.2"/>
</svg>
